/* XPM */
static char *_4738f2ab4ad4516bdd79384f28cf687bESMlpZKOQHigydB[] = {
/* columns rows colors chars-per-pixel */
"32 32 7 1 ",
"  c None",
". c #25636A",
"X c #2D6E62",
"o c #31956C",
"O c #62BE73",
"+ c #81CC7B",
"@ c #C1E7AB",
/* pixels */
"                                ",
"                                ",
"                                ",
"                                ",
"                                ",
"                                ",
"                                ",
"                                ",
"                                ",
"                                ",
"                                ",
"                                ",
"                                ",
"                                ",
"             ..     .           ",
"             X     .X           ",
"            .X    .X            ",
"           .X    .XX            ",
"           .X   .XX             ",
"           .X.  .XX             ",
"           .X...XXoOO           ",
"         ...XXXXooO+OO          ",
"        ....XXXoOO+@+OO         ",
"       ....XXXooO++@@+O         ",
"       ...XXXXooOO++@+OO        ",
"      ...XXXXXoooOO+@@+O        ",
"      ...XXXXXooooO++@+O        ",
"      ...XXXXoooooOO+++OO       ",
"      ...XXXXooooooOO+++OO      ",
"     .......XoooooooOOOOOO      ",
"                                ",
"                                "
};
