/* XPM */
static char *ee0e549d96e94e7aa8953a61a337e27eJ4W36dr8YafKtsEv[] = {
/* columns rows colors chars-per-pixel */
"32 32 7 1 ",
"  c None",
". c #25636A",
"X c #2D6E62",
"o c #31956C",
"O c #62BE73",
"+ c #81CC7B",
"@ c #C1E7AB",
/* pixels */
"                                ",
"                                ",
"                                ",
"                                ",
"                                ",
"                                ",
"                                ",
"                                ",
"                                ",
"                                ",
"                                ",
"                                ",
"                                ",
"                                ",
"                                ",
"              ..                ",
"             .X     ..          ",
"            .X    ..  .         ",
"            .X   .X             ",
"           .X    .X             ",
"           .X.  .XX             ",
"          ..XX..XXoOO           ",
"        ....XXXXXoO+OO          ",
"       ....XXXXooO+@+OOO        ",
"      ....XXXXoooO+@@++OO       ",
"      ...XXXXXooooO+@@@+OO      ",
"      ...XXXXoooooOO+@@@+O      ",
"     ....XXXXooooooO+@@++O      ",
"     ....XXXXXoooooO++++OOO     ",
"    .........XooooooOOOOOOO     ",
"                                ",
"                                "
};
