/* XPM */
static char *b9763a1313dc4cc2a24b1c3d5c68d35ezu4MbjH2oz1j1a8M[] = {
/* columns rows colors chars-per-pixel */
"32 32 7 1 ",
"  c None",
". c #25636A",
"X c #2D6E62",
"o c #31956C",
"O c #62BE73",
"+ c #81CC7B",
"@ c #C1E7AB",
/* pixels */
"                                ",
"                                ",
"                                ",
"                                ",
"                                ",
"                                ",
"                                ",
"                                ",
"                                ",
"                                ",
"                                ",
"                                ",
"              ..                ",
"             .X    ...          ",
"            .X    .XX           ",
"           .XX   .X             ",
"           .X   .XX             ",
"           .X.. .XoO            ",
"           .X.X.XoOOO           ",
"          ..XXXXoO++OO          ",
"         ...XXXoO+@@+OO         ",
"         ...XXooOO+@@+OO        ",
"         ...XXoooOO+@@+O        ",
"         ...XXooooO++@+O        ",
"         ..XXXooooOO+@+O        ",
"        ...XXXXooooO+@+OO       ",
"        ...XXXXooooOO++OO       ",
"        ...XXXXoooooOOOOO       ",
"        ...XXXXXoooooOOOO       ",
"        .......XoooooOOOO       ",
"                                ",
"                                "
};
