/* XPM */
static char *_2eb9194d0e3413ccd06a479180569630kkXgUVXbGIWuzP0[] = {
/* columns rows colors chars-per-pixel */
"32 32 7 1 ",
"  c None",
". c #25636A",
"X c #2D6E62",
"o c #31956C",
"O c #62BE73",
"+ c #81CC7B",
"@ c #C1E7AB",
/* pixels */
"                                ",
"                                ",
"                                ",
"                                ",
"                                ",
"                                ",
"                                ",
"                                ",
"                                ",
"                                ",
"                                ",
"                                ",
"                                ",
"                                ",
"                                ",
"             ... ...            ",
"           ..XX .XXX..          ",
"          ..X  ..X              ",
"         ..XX..XXoOOO           ",
"        ...XXXXooO++OO          ",
"       ....XXXooO++@+OO         ",
"      ....XXXXooOO+@@+O         ",
"     .....XXXXoooO+@@+O         ",
"     ....XXXXooooO++@+O         ",
"     ....XXXXooooOO+@+O         ",
"     ....XXXXoooooO+@+OO        ",
"      ...XXXXoooooOO+@+O        ",
"      ...XXXXXoooooOO++O        ",
"      .......XXoooooOOOO        ",
"                                ",
"                                ",
"                                "
};
