/* XPM */
static char *Textures_16__2_1696262551[] = {
/* columns rows colors chars-per-pixel */
"32 32 3 1 ",
"  c #181425",
". c #2E1F2C",
"X c #4D2D33",
/* pixels */
"        ..                      ",
"                                ",
"   ..  .           .X  .        ",
"   ..  .           ..  .        ",
"           ..              .X   ",
"  ..     . .. .   ..     . .. . ",
"                                ",
"           .               .    ",
"                                ",
"       ..              X.       ",
" .   . ..        .   . ..       ",
"     .               .          ",
"             ..              X. ",
"             ..              .. ",
"     ..              ..         ",
"  .         .     .         .   ",
"                                ",
"                                ",
"         .                      ",
"                                ",
"  ..                            ",
"  ..                .           ",
"            ..                  ",
"            ..                  ",
"                           .    ",
"   .                            ",
"                                ",
"      ..                        ",
"      ..                        ",
"              .        .        ",
"                                ",
"                 .              "
};
