/* XPM */
static char *Textures_16__3_1696262723[] = {
/* columns rows colors chars-per-pixel */
"32 32 4 1 ",
"  c #3A4466",
". c #5A6988",
"X c #181425",
"o c #262B44",
/* pixels */
" ..  ....Xoo.... .. XXX .. oo  o",
"   o ....o.. ...   o  X .. oXooo",
" .. o  . .... ..  o  . o ooXo  o",
"....o.. o....o  ooX    Xo  X .. ",
"....o...o .. oo oXXo  oX   X    ",
" .. o ..Xo  o..oX  XooXX  oXo  o",
"o  ooo  XooX.... .. XXXXooXXXooX",
"oXo.. oo.. o.... .. Xo  XXo  XXX",
"o ....o.... ....    o .. X  . oX",
"o ..  o....  .. o  oo .. Xoo  oX",
"oXo .. ..  oX  oXooXXoo  o  oXXX",
". o....  ...oXo. XXX   oo .. Xo ",
"..o....o.....o... X  .. X .. X  ",
"..o ... ..... ..  o  .. o   oX  ",
" ..o   o ... oo oXXo   oXoooX  o",
"....oo.. o  o..oX  XooXo  XX  . ",
" ..  ....Xoo....  . XXX .. oo  o",
"   o ....o.. ...   o  X .. oXooo",
" .. o  . .... ..  o .. o ooXo  o",
"....o.. o....o  ooX    Xo  X  . ",
"....o...o .. oo oXXo  oX   X    ",
" .. o ..oo  o..oX  XooXX  oXo  o",
"o  oXo  XXoo.... .. XXXXooXXXooX",
"Xo .. Xo.. X.... .. Xo  XXo  XXX",
"o ....o.... .  .    o .. X  . oX",
"o .   o.  .     o  oo .. Xoo  oX",
"Xo  ..     Xo  oXooXXoo  o  oXXX",
". o....  ...Xoo. XXX   oo .. Xo ",
"..o.  .o.....o..  X  .. X .. X  ",
" .o    o.   .o.   o  .. o   oX  ",
"  Xo  oX     X  oXXo   oXoooXooo",
" XXXooXXX   XXX XooXooXoooXXo  o"
};
