/* XPM */
static char *Textures_16__1_1696262557[] = {
/* columns rows colors chars-per-pixel */
"32 32 6 1 ",
"  c #4D2D33",
". c #75483A",
"X c #966C4A",
"o c #2E1F2C",
"O c #181425",
"+ c #2B1D2B",
/* pixels */
" ..  X..XoooX..X ..  ....Ooo....",
"   o ....oXX ...   o ....o.. ...",
" XX o  . X..X .. .. o  . .... ..",
"X..XoXX o....o  ....o.. o....o  ",
"....o..Xo .. oo ....o...o .. oo ",
" .. o ..oo  oXXo .. o ..Oo  o..o",
"o  ooo  ooooX..Xo  ooo  OooO....",
"oo XX ooXX o....oOo.. oo.. o....",
"o X..XoX..X ....oo....o.... ....",
"o ..  o....  .. oO..  o....  .. ",
"oo  XX ..  oo  ooOo .. ..  oO  o",
"X oX..X  XXXoooX. o....  ...oOo.",
".Xo....oX...XoX...o....o.....o..",
"..o ... ..... ....o ... ..... ..",
" XXo   o ... oo  ..o   o ... oo ",
"X..XooXX o  oXXo....oo.. o  o..o",
" ..  X..XoooX..X ..  ....Ooo....",
"   o ....oXX ...   o ....o.. ...",
" XX o  . X..X .. .. o  . .... ..",
"X..XoXX o....o  ....o.. o....o  ",
"....o..Xo .. oo ....o...o .. oo ",
" .. o ..oo  oXXo .. o ..Oo  o..o",
"o  ooo  ooooX..Xo  ooo  OooO....",
"oo XX ooXX o....Oo .. Oo.. o....",
"o X..XoX..X ....o ....o.... ....",
"o ..  o....  .. o ..  o....  .. ",
"oo  XX ..  oo  ooo  .. ..  oo  o",
"X oX..X  XXXoooX. o....  ...oOo.",
".Xo....oX...XoX...o....o.....o..",
".. .... .....o....o ..  .....o..",
". o .. o ... o  . Oo   o ... o .",
" ooo  ..o   ooo  oOOO+oOo   oOo "
};
