/* XPM */
static char *kisspng_portal_video_game_film_column_sprite_5b4d6fe1772221_142680121531801569488__1_1696267155[] = {
/* columns rows colors chars-per-pixel */
"32 32 70 1 ",
"  c None",
". c #0E1D2B",
"X c #0D2234",
"o c #0C263B",
"O c #0B283E",
"+ c #0A2B43",
"@ c #0C2F49",
"# c #0B314B",
"$ c #0C3552",
"% c #0E3856",
"& c #0C3D5E",
"* c #0C3F60",
"= c #0E4366",
"- c #0D466C",
"; c #0D486F",
": c #144364",
"> c #0D4A71",
", c #104D76",
"< c #114F78",
"1 c #13527C",
"2 c #165682",
"3 c #175885",
"4 c #185986",
"5 c #175B88",
"6 c #1A5D8B",
"7 c #1C618F",
"8 c #1D6393",
"9 c #1E6798",
"0 c #1F699A",
"q c #21638F",
"w c #226592",
"e c #216B9D",
"r c #2C6E9A",
"t c #2F729E",
"y c #30729E",
"u c #226EA2",
"i c #2571A5",
"p c #2675AB",
"a c #2976AC",
"s c #2A79AF",
"d c #367AA5",
"f c #2B7CB3",
"g c #2B7FB8",
"h c #3E82AC",
"j c #2C81BA",
"k c #3384BA",
"l c #3887BB",
"z c #4184AF",
"x c #4286B0",
"c c #4388B3",
"v c #4E91BC",
"b c #2F86C1",
"n c #3187C1",
"m c #3189C5",
"M c #348ECC",
"N c #3791CD",
"B c #3C93CD",
"V c #418FC1",
"C c #4690C0",
"Z c #4E98C5",
"A c #4296CE",
"S c #4897CA",
"D c #4698CE",
"F c #4C9BCE",
"G c #559BC4",
"H c #539ECE",
"J c #5A9EC8",
"K c #56A0CF",
"L c #5BA3CF",
"P c #61A6CF",
/* pixels */
"                                ",
"            LLLLLLLL            ",
"          PGjjjjjgmNHK          ",
"        DDcd443445esflFL        ",
"       MKJq441<<<1254uMKP       ",
"     MDLdw41,>>;>,><468kAP      ",
"     BSGr441;;,2un02444amLL     ",
"   MBLx44421>36psfmmu8448MFP    ",
"   MBLx442>>>44@#&5iMs448mFL    ",
"   MBLx444>;>@++++=2nbf88MFP    ",
"   LZyw5sg<;>#++++&>3iMe4wfALP  ",
"  NHGw56gn<;>@++++&>>9Me44iNKP  ",
"  MHGwiM7;>>*@+.X+&=;7j944iNKP  ",
"  MKGwiN7;>*++X.XoO@;17544iNKP  ",
"  MHGquM7>;*+X....o@;2u644iNKP  ",
"  MKGwiM6;>*+.....o#;>>244iNKP  ",
"  MHGwiM8<>*+.....X@-;>233iNKP  ",
"  MKGwiMMj<*+.....o@->>153iNKP  ",
"  MHGqefnn<*+XX..Xo#-18544iNLP  ",
"  MKGq449uueq%+.X+$&;9Me44iNKP  ",
"  MKGq24>>7iM=+o++*>>9Me44iNKP  ",
"   PGw4422><3$++++&;;9Me45iNKP  ",
"   NBLh442>>>@++++=3ms558nDP    ",
"   MBLc444>>>%@+@$8ggu538MFP    ",
"   MBLc444<,;66@%;;;<1448MFP    ",
"    BFVhw442;w0qwu2,444ufFH     ",
"     MFPy441>;>655<,445gBPP     ",
"      BBZv642,,>,><24ekFL       ",
"       MHGiw443424688aBKP       ",
"         NHVuiuiiibNDHP         ",
"           AHFHFFFFH            ",
"                                "
};
