/* XPM */
static char *kisspng_portal_video_game_film_column_sprite_5b4d61696273849[] = {
/* columns rows colors chars-per-pixel */
"32 32 91 1 ",
"  c None",
". c #0E1D2C",
"X c #0E2233",
"o c #0D263B",
"O c #0E283D",
"+ c #102436",
"@ c #102638",
"# c #11293D",
"$ c #0B2C44",
"% c #0B2F49",
"& c #0C324D",
"* c #133147",
"= c #13344D",
"- c #0D3653",
"; c #0D3956",
": c #0D3D5D",
"> c #123956",
", c #183B56",
"< c #103E5E",
"1 c #183F5C",
"2 c #0E3F60",
"3 c #19415E",
"4 c #0C4265",
"5 c #0E466B",
"6 c #0F496F",
"7 c #124364",
"8 c #13466A",
"9 c #174A6F",
"0 c #1A496A",
"q c #0E4B72",
"w c #114E76",
"e c #184F75",
"r c #114F78",
"t c #1F5176",
"y c #13527C",
"u c #1B547C",
"i c #165682",
"p c #185781",
"a c #175985",
"s c #195985",
"d c #175B88",
"f c #1A5D8A",
"g c #1D608F",
"h c #1D6393",
"j c #1F689A",
"k c #236592",
"l c #256896",
"z c #296B97",
"x c #206798",
"c c #226A9C",
"v c #2C6E9A",
"b c #236EA2",
"n c #2671A5",
"m c #2A73A3",
"M c #2675AB",
"N c #2A76AA",
"B c #2C78AC",
"V c #3073A0",
"C c #3679A4",
"Z c #367EAC",
"A c #3A7EAA",
"S c #2C7DB3",
"D c #317FB3",
"F c #3D81AD",
"G c #2E82BB",
"H c #3382B6",
"J c #3E84B2",
"K c #3484BA",
"L c #3887BB",
"P c #3A89BE",
"I c #4084AE",
"U c #4288B5",
"Y c #448DBB",
"T c #488EBB",
"R c #4890BE",
"E c #2F85C0",
"W c #3387C0",
"Q c #358AC4",
"! c #3C8CC1",
"~ c #3E94CD",
"^ c #418EC2",
"/ c #4292C6",
"( c #4B94C2",
") c #4496CC",
"_ c #4C97C8",
"` c #4698CD",
"' c #4B9ACC",
"] c #529ECD",
"[ c #56A1CF",
"{ c #5AA2CE",
"} c #61A6CF",
/* pixels */
"                                ",
"                                ",
"            ]''''`''']          ",
"          ](HmcxjbnSQ)]]        ",
"        `/FVkdadaaddfcBL_{      ",
"       )`YAzgywqqyqyigbD(]      ",
"      ~/UAlprydgjhyrridcS!]{    ",
"     ~)YAvgayyhhw55qryshmH/'    ",
"    `)(Ilfxkaw657efjhfaadcK^]}  ",
"    )_RUVMGShr48pguphjjhhcK^]{  ",
"    )/YJBnjhy5-%=;-:5yidfxD!_[  ",
"   (TFlknbjfr4&$$$&;5qrysdkmP'{ ",
"  ~~YAzjMMjfr4&O$$>8fhsipdhbP'[}",
"  ~)YFmnEEns5;%O*1tsskxchfhnP'{}",
"  ~/YFlkMMjp:$oX+#*=;8hbccknP)[}",
"  ~/YAkfjjjd3$X...XO&:wdbnbM!_{}",
"  ~/YAksafbxe>o....o&:5ibMmM!'[}",
"  ~/YAkpyahnMk=....o&:5abMbM!'[}",
"  ~~YAkpirq4-$X...Xo-:5ibMnM!']}",
"  )/TAkiyrq4;$oo*,00:25abMbM!'{}",
"  ~/YAkairqq5:%%,tlxr56ragkmP']}",
"  ~/YFkpyyqqq4&$$=0ukhyicnbN!)]}",
"    RJVkdiyqq2-$$%7ujjdiahcB^]{ ",
"    `_RIlayrq4%%;8psfdaidcK^]}  ",
"    `)(Ilfchsw47esbjiwradbK/]{  ",
"    `)(IldfdydMSMcdyrridfcD/]}  ",
"     ~)/UCkprsbby6qqwiskS!'{    ",
"      ~/UAlfyryyq6qqrifcD^_{    ",
"       )`/ZvfarrrrrypgnH([      ",
"        )/YZzfffadfcbBL^'       ",
"          )~WDSSSSSW~)]         ",
"            ][[[[[[[[           "
};
