/* XPM */
static char *kisspng_portal_video_game_film_column_sprite_5b4d6fe1772221_142680121531801569488__2_1696268814[] = {
/* columns rows colors chars-per-pixel */
"32 32 212 2 ",
"   c None",
".  c #0E1C2A",
"X  c #0E1D2C",
"o  c #0D1F2F",
"O  c #0D2030",
"+  c #0D2234",
"@  c #0C2437",
"#  c #0B273C",
"$  c #0B283E",
"%  c #0A2B42",
"&  c #0A2B43",
"*  c #0A2D46",
"=  c #0A2E47",
"-  c #0A2E48",
";  c #0B314C",
":  c #0D324C",
">  c #0E344F",
",  c #0B3450",
"<  c #0B3451",
"1  c #0C3957",
"2  c #0C3958",
"3  c #0C3A5A",
"4  c #0C3B5B",
"5  c #0C3D5D",
"6  c #0C3D5E",
"7  c #0D3E5F",
"8  c #123A57",
"9  c #113B59",
"0  c #103B5A",
"q  c #0C3E60",
"w  c #0E3F60",
"e  c #0E4163",
"r  c #0C4164",
"t  c #0C4265",
"y  c #0D4468",
"u  c #0D4469",
"i  c #0D476D",
"p  c #0D486E",
"a  c #12476B",
"s  c #16486B",
"d  c #0D4970",
"f  c #0D4971",
"g  c #0D4A71",
"h  c #0E4A71",
"j  c #0E4A72",
"k  c #0E4B72",
"l  c #0E4B73",
"z  c #0F4C74",
"x  c #104D75",
"c  c #104D76",
"v  c #104E76",
"b  c #114E78",
"n  c #114F78",
"m  c #115079",
"M  c #13517C",
"N  c #12527C",
"B  c #13527C",
"V  c #12537D",
"C  c #14537E",
"Z  c #14547E",
"A  c #15547F",
"S  c #145681",
"D  c #155782",
"F  c #165682",
"G  c #165783",
"H  c #165885",
"J  c #175885",
"K  c #175986",
"L  c #175A87",
"P  c #175B87",
"I  c #1C5881",
"U  c #185884",
"Y  c #185885",
"T  c #185985",
"R  c #185986",
"E  c #195A87",
"W  c #1F5C86",
"Q  c #175C89",
"!  c #195A88",
"~  c #195B89",
"^  c #1A5B88",
"/  c #195C89",
"(  c #185C8A",
")  c #185D8B",
"_  c #1A5D8B",
"`  c #1B5E8B",
"'  c #1D5E8B",
"]  c #195E8C",
"[  c #195F8D",
"{  c #1B5E8D",
"}  c #1B5F8D",
"|  c #1A608E",
" . c #1F608D",
".. c #1C608F",
"X. c #1B6290",
"o. c #1B6291",
"O. c #1B6292",
"+. c #1C6191",
"@. c #1C6392",
"#. c #1D6392",
"$. c #1E6292",
"%. c #1C6493",
"&. c #1C6594",
"*. c #1D6595",
"=. c #1E6494",
"-. c #1E6596",
";. c #1D6696",
":. c #1E6797",
">. c #1F6698",
",. c #1E6798",
"<. c #226796",
"1. c #236796",
"2. c #256794",
"3. c #266894",
"4. c #276995",
"5. c #236999",
"6. c #20689A",
"7. c #20699A",
"8. c #216A9D",
"9. c #206B9D",
"0. c #216C9E",
"q. c #226C9F",
"w. c #2A6C98",
"e. c #2E6F9C",
"r. c #2E709C",
"t. c #226EA1",
"y. c #226EA2",
"u. c #236FA3",
"i. c #266EA0",
"p. c #276FA0",
"a. c #2771A3",
"s. c #2471A6",
"d. c #2472A6",
"f. c #2572A6",
"g. c #2473A7",
"h. c #2573A7",
"j. c #2673A7",
"k. c #2874A7",
"l. c #2573A8",
"z. c #2675AA",
"x. c #2676AB",
"c. c #2875A9",
"v. c #2A76AA",
"b. c #2A77AB",
"n. c #2878AF",
"m. c #2B79AE",
"M. c #3274A0",
"N. c #387CA8",
"B. c #297CB3",
"V. c #2A7CB4",
"C. c #2B7FB7",
"Z. c #2C7FB7",
"A. c #2B7FB8",
"S. c #2C7FB8",
"D. c #2C80B9",
"F. c #2D81BB",
"G. c #2F82BB",
"H. c #2E83BE",
"J. c #2E84BE",
"K. c #2E85BF",
"L. c #4487B2",
"P. c #4D91BB",
"I. c #2F85C0",
"U. c #2F86C1",
"Y. c #3189C5",
"T. c #328AC6",
"R. c #328BC8",
"E. c #328CC9",
"W. c #338DCB",
"Q. c #338ECB",
"!. c #348FCD",
"~. c #3590CD",
"^. c #3791CE",
"/. c #3891CD",
"(. c #3A92CD",
"). c #3992CE",
"_. c #3C93CE",
"`. c #3D94CE",
"'. c #3E94CE",
"]. c #4492C5",
"[. c #4794C6",
"{. c #4695C7",
"}. c #4395CA",
"|. c #4596CB",
" X c #4296CE",
".X c #4397CE",
"XX c #4799CE",
"oX c #4E9ACB",
"OX c #4A9BCE",
"+X c #4B9BCE",
"@X c #4C9CCE",
"#X c #4D9CCE",
"$X c #569AC4",
"%X c #579DC8",
"&X c #519DCC",
"*X c #509DCE",
"=X c #519ECE",
"-X c #519ECF",
";X c #529FCE",
":X c #529ECF",
">X c #55A0CF",
",X c #56A0CF",
"<X c #5DA1CB",
"1X c #58A2CF",
"2X c #59A2CF",
"3X c #5AA3CF",
"4X c #5BA3CF",
"5X c #5CA4CF",
"6X c #5EA5CF",
"7X c #60A5CF",
"8X c #60A6CF",
"9X c #61A6CF",
/* pixels */
"                                                                ",
"                        >X:X:X:X:X:X:X:X2X                      ",
"                  ~.8X%Xv.f.f.f.f.f.D.~. X+X8X                  ",
"              !.#X,Xe.w.^ H R R R R @.7.6.7..X+X8X              ",
"              /.:X<XR R H N l z l l N H R R R.}.5X              ",
"          !. X2XN.2.R F z h h p d h l l F R @.k.'.,X9X          ",
"          _.|.$Xe.R R F h h h V N h d d C R R 6.U.&X5X          ",
"      !.!.8XP.R R R C N h S &.I.I.%.X.O.H C R R R Z./.8X8X      ",
"      !.!.8XP.R R R h m 0.D.Q.1.W W n.~.X.h R R R Z./.9X9X      ",
"      !.!.8XP.R R R B.S.Q.i.s ; & & a ) f.B.R R R Z./.9X9X      ",
"      2X5X2. .R R R !.K.H q & % & & 3 f x.Q.H R R ( @./..X9X    ",
"  !.~.:X8X' R R R ( C.x.z 3 & $ $ & 3 f h p p m R R ' !.'.9X    ",
"  !.!.#X9X' R R D.!.f i 6 , % o O & , 5 u h p b R R ( !.'.9X    ",
"  !.!.:X9X' R R @.:.p y * # + X X + $ & q h h b R R ( !.'.9X    ",
"  !.!.:X9X' 6.H.( p h y * @ . . . . @ % q l D.l.R R { !.`.9X    ",
"  !.!.:X9X' 8.!.X.h h y * @ . . . . @ % q h { 8.S.:.{ !.`.9X    ",
"  !.!.-X9X' ^  .V z p y * @ . . . . @ % q f f %.!.,.( ~.'.9X    ",
"  !.!.-X9X' H R D.~.h y * @ . . . . @ % 6 f p %.!.y.( !.'.9X    ",
"  !.!.-X9X' R R D.~.h y * $ O X X + # & q f h O.!.8.( !.'.9X    ",
"  !.~.:X9X' R R C.!.j.7.e , & o O % , 5 u h h &.!.8.{ !.'.9X    ",
"  !.!.:X8X' R R H ( !.Q.D.I & $ 9 v.' h h h h X.!.8.{ ~.'.9X    ",
"      3X5X2. .R R R c F K.T.T.G.p., 5 h f l R.V.( { @.'. X5X    ",
"      !.!.8XP.R R R p h p ( a.0 & & 2 h S { D.x.R S./.9X9X      ",
"      !.~.8XP.R R ( ,.:.c t 1 * - 2 t h X.y.L H R Z./.9X9X      ",
"      !.!.9XP.L H R f.j.f.( p ; 0 y.Q p c M R R R Z./.8X8X      ",
"          XX].L.w.R R ( :.y.f.5.<.,.F h C R R :.n.].:X          ",
"          !.XX9XM.H R F h N ( P G h p h C R R 8.!.,X8X          ",
"              ~.:X<XR H R m h l l l M R R R R.|.5X              ",
"              !.#X,Xr.w.^ R R R H R @.7.6.7. X+X8X              ",
"                  ~.#X{.v.f.f.f.f.f.D.!..X+X8X                  ",
"                        :X:X:X:X:X:X:X:X2X                      ",
"                                                                "
};
