/* XPM */
static char *kisspng_portal_video_game_film_column_sprite_5b4d6fe1772221_142680121531801569488__3_1696274004[] = {
/* columns rows colors chars-per-pixel */
"32 32 83 1 ",
"  c None",
". c #0E1E2D",
"X c #0D202F",
"o c #0C2335",
"O c #0C2639",
"+ c #0C283E",
"@ c #0B2C44",
"# c #0B2F48",
"$ c #0C314C",
"% c #0F3754",
"& c #0D3956",
"* c #0C3B5B",
"= c #103957",
"- c #0E3F60",
"; c #0E4164",
": c #0E466B",
"> c #0F486E",
", c #154566",
"< c #12476C",
"1 c #15496C",
"2 c #0E4B73",
"3 c #114D75",
"4 c #114F78",
"5 c #165077",
"6 c #1A5177",
"7 c #14527C",
"8 c #1B547B",
"9 c #155682",
"0 c #1A5782",
"q c #165985",
"w c #195A86",
"e c #1A5D8A",
"r c #1C608E",
"t c #1D6494",
"y c #1F6799",
"u c #1F699A",
"i c #20628F",
"p c #236491",
"a c #266995",
"s c #286A96",
"d c #206798",
"f c #216A9C",
"g c #2D6F9B",
"h c #2D709D",
"j c #236EA1",
"k c #2571A5",
"l c #2973A6",
"z c #2674AA",
"x c #2A77AC",
"c c #2979AF",
"v c #3275A2",
"b c #367AA5",
"n c #337CAC",
"m c #3A7EA9",
"M c #2A7BB2",
"N c #2C7FB8",
"B c #327EB1",
"V c #3A81AE",
"C c #2E81BA",
"Z c #3482B5",
"A c #3C85B4",
"S c #3384BB",
"D c #3A86B9",
"F c #3A89BD",
"G c #4285B1",
"H c #4389B5",
"J c #438DBD",
"K c #4790BF",
"L c #368BC4",
"P c #3D8DC1",
"I c #368FCD",
"U c #3E94CD",
"Y c #418FC3",
"T c #4592C4",
"R c #4A96C6",
"E c #4295CB",
"W c #4997C9",
"Q c #4698CD",
"! c #4C9ACC",
"~ c #559CC7",
"^ c #519CCB",
"/ c #56A0CF",
"( c #5CA3CE",
/* pixels */
"                                ",
"            /^^^^!^^^/          ",
"          !~KBxcccMSLT!^        ",
"        Q!HvseewqeetflxD!/      ",
"       U!^Vrq97223399eyME!(     ",
"      Q!Ahpw7222>>2229etjZW^    ",
"     ETTbprq72299974499etxFT^   ",
"    EEDmge0779rjzjjfye99edcF^/  ",
"    EWJbse99tkkksw0fct79qdlD^/  ",
"    ETAvawdcckr1=$%3eukyqtkBT^  ",
"   WKHveeqfNj9;$@@#-2tkt0qejZY^ ",
"  UEJGgqrtuje:*#++#*:24449qfMF^(",
"  EEYGgejCu7;&#+OO+$*;2249qdMF!(",
"  UUJGgert92*#OoXoo+#-22799fML^(",
"  EEJHnltq4:*@oX...O#;9rjtefMF^(",
"  UEJGnjtq4:*@o...XO#-29yfjxNF^(",
"  UEJGheer7<*@oX...o#*29ruzzNLW(",
"  UEJGhwjCu3*@OX...o#*29tuzcNL^(",
"  UETGgwjCf7-$+oooo@#*29tuzcNF^(",
"  UEJGhwuNcle1=@O@$=;:29ruzcNF^(",
"  EEJGgweqfNMke1,607332eyfjcNL^(",
"    KJvpee99txxxg8,<:7quMktlDP^ ",
"    QEAbae9347761%$*2wuffkzZ^^  ",
"    QWDbaqtte43*&*,:3qtreyzD^/  ",
"    EEJVgepyyte76qq7470eefMF^(  ",
"     UERnspeerykzde737wrunYW    ",
"      Q!Jbsw9444322349efcD!/    ",
"       I!~Ai99974479erdBE!(     ",
"        QQYGviweewejcMSY^/      ",
"          UILSNZNSCLUQ^         ",
"             ~//(///(           ",
"                                "
};
