/* XPM */
static char *ac174cd9342b4bc9e556381703c4e087kXe4GvkjStwGPVQj[] = {
/* columns rows colors chars-per-pixel */
"32 32 6 1 ",
"  c none",
". c None",
"X c #811426",
"o c #A11B31",
"O c black",
"+ c white",
/* pixels */
"                                ",
"                                ",
"                                ",
"                                ",
"                                ",
"                                ",
"            .......             ",
"           .Xoooooo.            ",
"          .Xooo....o.           ",
"         .Xooo.OOOO.o.          ",
"         .Xoo.OOOOOO.o.         ",
"        .XXoo.OOOOOO.o.         ",
"       .XXXXo.OOOOOO.o.         ",
"       .XX.Xo.O+OOO+.o.         ",
"        ...Xo.OOOOOO.X.         ",
"          .XXo.OOOOO.X.         ",
"           .XXX.OOO.X.          ",
"            ..XX...X.           ",
"           .XXXoooooX.          ",
"          .XoooooooooX.         ",
"          .XoooooooooX.         ",
"          X oooooooooo.         ",
"         .Xooooooooooo.         ",
"        .XXooooooXooo X         ",
"       .X Xo ooooXooooX.        ",
"       .  XoooooX. ooXX .       ",
"        XXXXoXo X XXo XX.       ",
"       . X X oXX.O. XXX .       ",
"        .X.XX X. O.XX .         ",
"         . . ...O  ... .        ",
"               O    O           ",
"                   O            "
};
