/* XPM */
static char *_27d9932407c49eebadb78a6ae60644aHR9JFToEBGavr6pN[] = {
/* columns rows colors chars-per-pixel */
"32 32 5 1 ",
"  c none",
". c None",
"X c #811426",
"o c #A11B31",
"O c black",
/* pixels */
"                                ",
"                                ",
"                                ",
"                                ",
"                                ",
"                                ",
"                                ",
"                                ",
"            .. ....             ",
"            X  oooo.            ",
"          .X  o....o.           ",
"         .X oo.OOOO.o.          ",
"         .X o OOOOOO.           ",
"          X o OOOOOO.o.         ",
"       .X X  .OOOOOO.o.         ",
"           X  OOOOOO.           ",
"        . .X   OOOOO. .         ",
"          .X o OOOOO.X.         ",
"           .X X.OOO.X           ",
"            ..XX.. X            ",
"          . ooo oo oo           ",
"           Xo oo o  o           ",
"         .       oo  o          ",
"         X o o  oX  o X         ",
"       .X       o  oooX.        ",
"       .   o  o  . ooX  .       ",
"        XX          o X .       ",
"       .     o  .O  X           ",
"                                ",
"           .    O               ",
"               O                ",
"                                "
};
