/* XPM */
static char *Icon27__2_1696253075[] = {
/* columns rows colors chars-per-pixel */
"32 32 5 1 ",
"  c None",
". c #262B44",
"X c #87A4AB",
"o c #A6EDF0",
"O c white",
/* pixels */
"                                ",
"                                ",
"                                ",
"                                ",
"                                ",
"                                ",
"                                ",
"                                ",
"                                ",
"                                ",
"                                ",
"              ....              ",
"             .OOXX.             ",
"            .OooooX.            ",
"           .OooooooX.           ",
"          .OOOooooXXX.          ",
"          .OOOOOXXXXo.          ",
"           .OOooXoXo.           ",
"            .OOooXo.            ",
"             .OoXo.             ",
"              .Oo.              ",
"               ..               ",
"                                ",
"                                ",
"                                ",
"                                ",
"                                ",
"                                ",
"                                ",
"                                ",
"                                ",
"                                "
};
