/* XPM */
static char *Icon27__1_1696252709[] = {
/* columns rows colors chars-per-pixel */
"32 32 5 1 ",
"  c None",
". c #262B44",
"X c #87A4AB",
"o c #A6EDF0",
"O c white",
/* pixels */
"                                ",
"                                ",
"                                ",
"                                ",
"                                ",
"                                ",
"                                ",
"                                ",
"                                ",
"               ..               ",
"              .OO.              ",
"             .OOoO.             ",
"            .OOOOoo.            ",
"           .OOOOoOoo.           ",
"          .OOOOOOoooo.          ",
"          .ooooXXXXXX.          ",
"           .ooXoXXXX.           ",
"            .ooXXXX.            ",
"             .XoXX.             ",
"              .XX.              ",
"               ..               ",
"                                ",
"                                ",
"                                ",
"                                ",
"                                ",
"                                ",
"                                ",
"                                ",
"                                ",
"                                ",
"                                "
};
